<svg width="145" height="50" viewBox="0 0 145 50" fill="none" xmlns="http://www.w3.org/2000/svg">
<path d="M17.2566 18.1985H26.2209V23.629H17.2566V18.1985Z" fill="#F8AF78"/>
<path fill-rule="evenodd" clip-rule="evenodd" d="M25.8666 18.5497H17.6108V23.2778H25.8666V18.5497ZM17.2566 18.1985V23.629H26.2209V18.1985H17.2566Z" fill="black"/>
<path d="M21.7136 22.7948C24.6957 22.7948 26.0851 21.4881 26.407 20.8347C31.2232 20.8347 36.4132 24.0046 39.2543 30.1725C40.268 32.5868 40.465 35.4041 40.684 38.8247L39.8609 39.9863L32.2811 40.2733C32.3635 39.5286 32.5614 37.9031 32.6933 37.3582C32.8252 36.8133 32.7779 36.7949 33.1993 36.6314C33.0344 36.1773 32.7788 34.8344 32.537 34.3331C32.2347 33.7065 32.0003 32.8675 31.1485 32.1591C30.467 31.5924 30.26 31.5053 30.2417 31.5325L30.0768 31.8594L29.1142 42.5256L26.4972 43.0607L21.7136 43.4418L15.3347 43.0607L13.0063 42.5797L12.4366 32.0012V31.435L10.8952 34.5109L10.1999 35.5065C10.4497 36.1382 10.6383 36.9519 10.3172 37.4774C9.99602 38.003 9.94505 38.1395 9.72077 38.1547C9.54134 38.1668 7.84048 39.2349 7.4267 39.9914L7.0173 40.8027L3.91107 39.1761C3.40846 37.915 3.1189 36.6884 3.01259 35.5065C2.77599 34.9738 2.34002 33.7977 2.48892 33.3548C2.63781 32.9119 3.49906 32.506 3.91107 32.3583L4.75951 30.144L7.03011 26.4166L9.47428 23.5372C11.8003 22.0106 14.476 21.0542 17.0203 20.8347C17.3422 21.4881 18.7316 22.7948 21.7136 22.7948Z" fill="white"/>
<path fill-rule="evenodd" clip-rule="evenodd" d="M30.3745 31.5081L29.227 42.6274L28.875 42.5917L30.0225 31.4724L30.3745 31.5081ZM12.5635 31.965L12.9892 42.3687L12.6356 42.3829L12.21 31.9792L12.5635 31.965Z" fill="black"/>
<path fill-rule="evenodd" clip-rule="evenodd" d="M16.7967 43.2575L7.65662 41.743L7.71494 41.397L16.855 42.9114C20.3879 43.4968 23.999 43.4358 27.5097 42.7316L34.1576 41.3981L34.2278 41.7419L27.5799 43.0755C24.0268 43.7882 20.3721 43.8499 16.7967 43.2575Z" fill="black"/>
<path fill-rule="evenodd" clip-rule="evenodd" d="M32.7681 23.0072C30.7864 21.8451 28.6034 21.2781 26.0576 20.8434L26.1177 20.4973C28.6779 20.9345 30.9112 21.5103 32.9484 22.705C34.988 23.901 36.8181 25.7094 38.588 28.5922C39.6321 30.2929 40.322 32.5826 40.6338 34.6617C40.7899 35.7025 40.852 36.6959 40.815 37.5423C40.7782 38.3831 40.6428 39.099 40.3882 39.5702L40.3163 39.7033L33.0677 37.1453L33.0455 37.0526C32.9488 36.65 32.884 36.2705 32.823 35.9136C32.8046 35.8058 32.7865 35.7 32.768 35.5963C32.6877 35.1458 32.5988 34.7288 32.4391 34.3176C32.1307 33.5238 31.5484 32.7266 30.1961 31.7857L29.4475 32.3253L29.2393 32.0412L30.0167 31.4809V30.7718H30.3709V31.4783C31.7848 32.4565 32.4274 33.3105 32.7696 34.1914C32.9421 34.6353 33.0356 35.0795 33.1168 35.5352C33.1362 35.6436 33.1548 35.7524 33.1735 35.8621C33.2293 36.1887 33.2865 36.5232 33.3683 36.8786L40.1418 39.269C40.3193 38.8642 40.4288 38.265 40.4611 37.5271C40.497 36.7076 40.4369 35.7369 40.2834 34.7133C39.976 32.6635 39.2973 30.4229 38.2854 28.7748C36.539 25.9301 34.7475 24.1679 32.7681 23.0072Z" fill="black"/>
<path d="M40.9441 40.7801C40.3279 42.3123 37.9093 42.7957 35.542 41.8599C33.1747 40.9241 31.7551 38.9233 32.3713 37.3912C32.9874 35.859 35.406 35.3756 37.7733 36.3114C40.1406 37.2472 41.5602 39.2479 40.9441 40.7801Z" fill="white"/>
<path fill-rule="evenodd" clip-rule="evenodd" d="M38.8297 41.9012C39.7344 41.7204 40.3658 41.2699 40.6151 40.65C40.8643 40.0302 40.7188 39.2726 40.1878 38.5242C39.659 37.7789 38.7713 37.084 37.6421 36.6376C36.513 36.1913 35.3866 36.09 34.4856 36.2701C33.5809 36.4509 32.9496 36.9014 32.7003 37.5212C32.451 38.1411 32.5966 38.8987 33.1276 39.6471C33.6564 40.3924 34.5441 41.0873 35.6732 41.5337C36.8024 41.98 37.9288 42.0813 38.8297 41.9012ZM35.542 41.8599C37.9093 42.7957 40.3279 42.3123 40.9441 40.7801C41.5602 39.2479 40.1406 37.2472 37.7733 36.3114C35.406 35.3756 32.9874 35.859 32.3713 37.3912C31.7551 38.9233 33.1747 40.9241 35.542 41.8599Z" fill="black"/>
<path fill-rule="evenodd" clip-rule="evenodd" d="M10.3334 22.5816C12.0384 21.401 14.1037 20.848 17.3118 20.4109L17.36 20.7588C14.1638 21.1943 12.1691 21.7388 10.5362 22.8696C8.90057 24.0022 7.6089 25.7357 5.85108 28.5989C4.8313 30.2599 4.01291 32.1483 3.56682 33.8338C3.34377 34.6765 3.21503 35.4639 3.19895 36.144C3.18438 36.7597 3.2625 37.2747 3.4357 37.6618L9.78652 36.0877C9.76913 36.0199 9.76054 35.9526 9.76151 35.8853C9.76343 35.7523 9.80239 35.6321 9.86349 35.5182C9.9592 35.3398 10.124 35.1547 10.3123 34.9431C10.3501 34.9007 10.3888 34.8573 10.4281 34.8126C10.908 34.2665 11.5969 33.4145 12.213 31.7169V30.9489H12.5672V31.658L13.3446 32.2184L13.1364 32.5024L12.4756 32.0262C11.8589 33.65 11.1771 34.4948 10.6951 35.0433C10.6503 35.0942 10.6082 35.1417 10.5686 35.1863C10.3804 35.3983 10.2506 35.5445 10.1762 35.6831C10.1349 35.7601 10.1166 35.8256 10.1157 35.8903C10.1147 35.9556 10.1313 36.0334 10.1803 36.1349L10.2738 36.3289L3.24863 38.0702L3.18345 37.9496C2.92758 37.476 2.82798 36.8479 2.84483 36.1357C2.86175 35.4207 2.99645 34.6052 3.22421 33.7446C3.67972 32.0236 4.51239 30.104 5.54852 28.4163C7.30702 25.552 8.63122 23.7603 10.3334 22.5816Z" fill="black"/>
<path d="M3.91602 38.2666L7.45668 41.7771C8.00359 42.3193 8.89032 42.3193 9.43724 41.7771C9.98416 41.2348 9.98416 40.3557 9.43724 39.8134L5.89658 36.303L3.91602 38.2666Z" fill="#E2001A"/>
<path fill-rule="evenodd" clip-rule="evenodd" d="M5.89643 36.0547L9.56233 39.6893C10.1784 40.3001 10.1784 41.2905 9.56232 41.9013C8.94624 42.5121 7.94738 42.5121 7.3313 41.9013L3.66541 38.2667L5.89643 36.0547ZM4.16634 38.2667L7.58177 41.653C8.05952 42.1266 8.83411 42.1266 9.31186 41.653C9.78961 41.1793 9.78961 40.4113 9.31186 39.9376L5.89643 36.5513L4.16634 38.2667Z" fill="black"/>
<path d="M14.0766 45.3211L14.8717 46.5047C14.9076 46.5656 14.8704 46.6421 14.8033 46.656C14.793 46.6582 14.7824 46.6567 14.7722 46.654L14.4238 46.5605C14.4177 46.5589 14.4113 46.5581 14.4051 46.559C14.3609 46.5655 14.3256 46.5998 14.3181 46.6436C14.3171 46.6492 14.3176 46.6549 14.3187 46.6604L14.3979 47.0376C14.3998 47.0468 14.4007 47.0564 14.3986 47.0656C14.3837 47.1316 14.307 47.1672 14.2463 47.132L13.0479 46.341C13.0307 46.3311 13.0169 46.3163 13.0083 46.2985L12.472 45.3227C12.4671 45.3127 12.4606 45.3036 12.4526 45.2958L9.11933 41.9909C8.96201 41.8349 8.96201 41.582 9.11933 41.4261C9.27665 41.2701 9.53171 41.2701 9.68902 41.4261L13.0223 44.7309C13.0302 44.7388 13.0394 44.7452 13.0495 44.7501L14.0337 45.2818C14.0516 45.2904 14.0665 45.3041 14.0766 45.3211Z" fill="white"/>
<path fill-rule="evenodd" clip-rule="evenodd" d="M8.9942 41.3015C9.22068 41.0769 9.58788 41.0769 9.81436 41.3015L13.1396 44.5983L14.1158 45.1257C14.1613 45.1486 14.1995 45.1835 14.2262 45.2265L15.0221 46.4113L15.0247 46.4157C15.1242 46.5844 15.0202 46.79 14.8397 46.8274C14.7903 46.8377 14.7484 46.829 14.726 46.823L14.5225 46.7684L14.5714 47.0014C14.5756 47.0218 14.5815 47.0595 14.5715 47.1036C14.5314 47.2809 14.3254 47.3807 14.1571 47.2832L14.1526 47.2806L12.9531 46.4889C12.9096 46.4623 12.8745 46.4245 12.8513 46.3794L12.3194 45.4114L8.9942 42.1146C8.76772 41.8901 8.76772 41.526 8.9942 41.3015ZM14.3778 46.7296C14.3777 46.7296 14.3777 46.7296 14.3776 46.7296L14.3778 46.7296ZM9.56389 41.5498C9.47574 41.4624 9.33282 41.4624 9.24467 41.5498C9.15651 41.6372 9.15651 41.7789 9.24467 41.8663L12.578 45.1712C12.5986 45.1917 12.6159 45.2152 12.6291 45.241L13.157 46.2016L14.184 46.8794L14.1455 46.6957C14.1414 46.6766 14.1378 46.6476 14.1436 46.6137C14.1639 46.4951 14.2592 46.4026 14.379 46.3849C14.417 46.3793 14.4491 46.3849 14.4701 46.3906L14.6073 46.4274L13.9365 45.4287L12.9676 44.9053C12.9416 44.8922 12.9179 44.8752 12.8972 44.8547L9.56389 41.5498Z" fill="black"/>
<path d="M1.99285 33.7278C1.32226 35.2373 2.66937 37.2867 5.00171 38.3052C7.33405 39.3237 9.7684 38.9256 10.439 37.4161C11.1096 35.9066 9.76246 33.8572 7.43013 32.8387C5.09779 31.8202 2.66344 32.2183 1.99285 33.7278Z" fill="white"/>
<path fill-rule="evenodd" clip-rule="evenodd" d="M2.66793 36.0089C2.16404 35.2423 2.04572 34.48 2.31701 33.8694C2.5883 33.2587 3.23538 32.8306 4.14597 32.6817C5.05278 32.5335 6.1749 32.6743 7.28735 33.1601C8.3998 33.6459 9.26209 34.3716 9.7639 35.135C10.2678 35.9016 10.3861 36.6639 10.1148 37.2746C9.84354 37.8852 9.19645 38.3133 8.28586 38.4622C7.37905 38.6104 6.25693 38.4696 5.14448 37.9838C4.03203 37.498 3.16974 36.7723 2.66793 36.0089ZM5.00171 38.3052C2.66937 37.2867 1.32226 35.2373 1.99285 33.7278C2.66344 32.2183 5.09779 31.8202 7.43013 32.8387C9.76246 33.8572 11.1096 35.9066 10.439 37.4161C9.7684 38.9256 7.33405 39.3237 5.00171 38.3052Z" fill="black"/>
<path d="M2.86356 33.9257L4.22329 35.2727L2.28686 37.1942L0.927144 35.8472C0.391959 35.3171 0.391589 34.4571 0.926315 33.9265C1.46104 33.3959 2.32838 33.3955 2.86356 33.9257Z" fill="#E2001A"/>
<path fill-rule="evenodd" clip-rule="evenodd" d="M2.28696 37.4428L0.801952 35.9717C0.197574 35.373 0.197156 34.4019 0.801017 33.8027C1.40488 33.2035 2.38435 33.2031 2.98873 33.8018L4.47374 35.2728L2.28696 37.4428ZM3.97281 35.2731L2.73837 34.0502C2.27238 33.5886 1.51718 33.5889 1.05159 34.0509C0.585997 34.5129 0.586319 35.2617 1.05231 35.7233L2.28674 36.9462L3.97281 35.2731Z" fill="black"/>
<path d="M2.13789 35.1369L1.25506 37.6774C0.965329 38.3693 1.09229 38.7933 1.56991 39.0932C2.04752 39.393 2.54061 38.888 2.78965 38.4981C2.57024 38.8416 2.30993 39.5776 2.71907 39.9249C2.83877 40.0265 2.98782 40.0961 3.14142 40.1309C3.52438 40.2178 4.00723 40.0287 4.21416 39.7047C3.96512 40.0946 3.65373 40.5989 4.21416 40.9468C4.70998 41.334 5.38918 40.9888 5.63822 40.5989L4.54075 42.7585C4.29679 43.2165 4.30988 43.6286 4.64728 43.8405C4.92954 44.0177 5.31959 43.9905 5.63822 43.6193L8.1324 40.419L9.23612 38.7849C10.007 37.6435 9.62576 36.0923 8.41161 35.4305L5.50809 33.848C4.22461 33.1484 2.61501 33.764 2.13789 35.1369Z" fill="#F8AF78"/>
<path fill-rule="evenodd" clip-rule="evenodd" d="M5.42277 34.002C4.23555 33.3549 2.74667 33.9243 2.30534 35.1943L1.42073 37.7398L1.41863 37.7448C1.28087 38.0738 1.25396 38.3125 1.29702 38.4918C1.33863 38.665 1.45274 38.8119 1.66466 38.9449C1.81497 39.0393 1.96711 39.024 2.13107 38.9302C2.30186 38.8325 2.46395 38.6583 2.58787 38.482C2.60558 38.4568 2.62232 38.4319 2.63799 38.4074L3.32176 37.2255C3.37042 37.1414 3.47865 37.1123 3.5635 37.1606C3.64835 37.2088 3.67768 37.3161 3.62901 37.4002L2.94328 38.5856C2.942 38.5878 2.94066 38.59 2.93928 38.5922C2.92184 38.6195 2.90332 38.6472 2.88379 38.6752C2.79074 38.8432 2.70378 39.072 2.68152 39.2889C2.65879 39.5104 2.70542 39.6839 2.83344 39.7915C2.92986 39.8726 3.05214 39.9306 3.18094 39.9599C3.33123 39.994 3.51078 39.9752 3.67817 39.9089C3.84524 39.8428 3.98424 39.7359 4.06382 39.612L4.80619 38.4067C4.85717 38.3239 4.96617 38.2978 5.04964 38.3484C5.13312 38.3989 5.15947 38.507 5.10849 38.5897L4.36531 39.7963L4.36378 39.7988C4.3605 39.8039 4.35717 39.809 4.35378 39.8141L4.35394 39.8142C4.23103 40.007 4.11403 40.2216 4.08427 40.4184C4.06993 40.5131 4.07722 40.5958 4.10777 40.6678C4.13777 40.7384 4.19609 40.8126 4.30816 40.8822L4.31624 40.8873L4.32373 40.8931C4.50568 41.0352 4.72629 41.0362 4.95113 40.9441C5.17923 40.8507 5.38233 40.6707 5.48776 40.5064L6.08919 39.5247C6.13997 39.4418 6.2489 39.4154 6.3325 39.4658C6.4161 39.5161 6.44271 39.6241 6.39193 39.707L5.78959 40.6902C5.78931 40.6906 5.78903 40.6911 5.78875 40.6915C5.78845 40.692 5.78815 40.6925 5.78785 40.6929C5.78377 40.6993 5.77959 40.7057 5.77533 40.7121L5.7783 40.7136L4.69816 42.8391L4.69737 42.8406C4.58479 43.052 4.54116 43.2356 4.55256 43.378C4.56333 43.5126 4.62281 43.6174 4.74204 43.6923C4.84789 43.7587 4.97116 43.7856 5.09751 43.7629C5.22289 43.7404 5.36436 43.6664 5.50073 43.5087L7.98859 40.3165L9.08896 38.6873C9.80206 37.6315 9.44938 36.1967 8.32629 35.5845L5.42277 34.002ZM5.10315 41.2617C5.09756 41.2641 5.09196 41.2664 5.08635 41.2687C4.78778 41.391 4.42436 41.4137 4.11217 41.1749C3.95209 41.0736 3.84264 40.9484 3.78132 40.8041C3.71954 40.6586 3.71257 40.5078 3.73397 40.3663C3.73963 40.3289 3.74735 40.2916 3.7568 40.2547C3.54834 40.3273 3.31633 40.3509 3.10189 40.3022C2.9235 40.2617 2.74831 40.1804 2.60436 40.0594C2.34989 39.8455 2.30062 39.5311 2.32913 39.2533C2.33028 39.2421 2.33156 39.2309 2.33296 39.2198C2.32472 39.2247 2.31644 39.2296 2.30811 39.2344C2.06697 39.3724 1.76864 39.4259 1.47515 39.2416C1.20946 39.0748 1.02128 38.8598 0.952442 38.5731C0.885359 38.2938 0.939016 37.9761 1.08937 37.6152L1.97045 35.0799C2.48335 33.604 4.21367 32.9422 5.59341 33.6942L8.49693 35.2768C9.80214 35.9882 10.212 37.6557 9.38328 38.8827L8.27622 40.5218L5.77581 43.7301L5.7731 43.7333C5.59164 43.9447 5.37979 44.0691 5.16072 44.1085C4.94182 44.1478 4.72894 44.0997 4.55253 43.989C4.33436 43.852 4.21859 43.6448 4.19946 43.4058C4.18099 43.1752 4.25246 42.9243 4.38333 42.6781L5.10315 41.2617Z" fill="black"/>
<path d="M32.335 41.1624L31.24 43.0905C30.9375 43.6231 30.3472 43.9294 29.7334 43.8724C29.3716 43.8388 29.155 43.4571 29.3138 43.133L30.6743 40.3571C30.809 40.0821 31.017 39.8472 31.2149 39.6128C31.8902 38.8133 32.8018 37.1856 35.5199 37.4876C37.5662 37.7149 40.2147 39.8014 39.1989 42.5235C38.3862 44.7012 36.8147 44.9648 36.1305 44.8244C35.5262 45.3121 34.8051 45.4677 34.4196 45.4763L33.1429 47.634C32.9369 47.9822 32.4628 48.0597 32.1549 47.7956C31.9256 47.5989 31.8643 47.272 31.9975 47.0019C33.1208 44.7247 34.2619 41.2365 33.6254 40.9719C32.9445 40.6888 32.5821 40.9265 32.335 41.1624Z" fill="#F8AF78"/>
<path fill-rule="evenodd" clip-rule="evenodd" d="M32.4974 37.9951C33.1862 37.4995 34.138 37.1574 35.5396 37.3131C36.6071 37.4317 37.821 38.0314 38.6406 38.954C39.4659 39.8829 39.8997 41.1515 39.365 42.5845C38.5515 44.7644 36.9795 45.1305 36.1781 45.0111C35.5829 45.4666 34.9331 45.6287 34.5224 45.6496L33.2957 47.7229C33.0337 48.1657 32.4307 48.2644 32.039 47.9284C31.7466 47.6776 31.6713 47.2637 31.8385 46.9248C32.3959 45.7948 32.9581 44.363 33.3013 43.1836C33.4732 42.5927 33.5876 42.0734 33.6211 41.6904C33.638 41.4976 33.6333 41.351 33.6113 41.251C33.6004 41.2017 33.5869 41.1709 33.5754 41.1532C33.5651 41.1372 33.5584 41.1345 33.557 41.1339C33.2444 41.0039 33.0237 41.0007 32.8624 41.0425C32.7072 41.0827 32.5859 41.1698 32.4764 41.2716L31.3943 43.1767C31.0575 43.7697 30.4003 44.1108 29.7169 44.0473C29.2319 44.0022 28.9416 43.4907 29.1545 43.0563L30.515 40.2804C30.6489 40.0071 30.8487 39.7718 31.0292 39.5591C31.046 39.5393 31.0627 39.5196 31.0791 39.5001C31.1484 39.4182 31.2223 39.3241 31.3025 39.2221C31.5939 38.8515 31.9675 38.3763 32.4974 37.9951ZM34.7232 45.2748C35.0822 45.2163 35.5707 45.0498 36.0187 44.6882C36.3063 44.4562 36.578 44.1431 36.7891 43.7244C36.8329 43.6376 36.9393 43.6025 37.0268 43.6459C37.1142 43.6892 37.1497 43.7947 37.106 43.8814C36.9471 44.1964 36.7564 44.4594 36.549 44.6777C37.2581 44.6439 38.3859 44.1961 39.0328 42.4626C39.5139 41.1734 39.1314 40.0377 38.3748 39.1861C37.6126 38.3281 36.479 37.7709 35.5002 37.6621C34.1838 37.5159 33.3207 37.8366 32.7054 38.2793C32.2206 38.6281 31.8885 39.0497 31.5994 39.4168C31.5137 39.5257 31.4317 39.6297 31.3507 39.7256C31.3353 39.7439 31.3199 39.762 31.3047 39.78C31.1188 39.9994 30.9473 40.2018 30.8336 40.4339L29.4731 43.2098C29.3683 43.4236 29.5112 43.6754 29.75 43.6976C30.2942 43.7482 30.8175 43.4766 31.0857 43.0044L32.1935 41.0539L32.2122 41.036C32.3449 40.9093 32.5236 40.7673 32.7728 40.7027C33.0247 40.6374 33.3257 40.6569 33.694 40.81C33.8533 40.8763 33.9253 41.0306 33.9574 41.1762C33.9904 41.3265 33.9922 41.5137 33.974 41.7207C33.9375 42.1373 33.8158 42.6821 33.6416 43.2809C33.2925 44.481 32.7226 45.9318 32.1566 47.0791C32.0574 47.2803 32.1046 47.5203 32.2708 47.6629C32.495 47.8552 32.8402 47.7987 32.9902 47.5452L34.2643 45.3917L35.6095 42.7971C35.6542 42.7109 35.7609 42.6769 35.8479 42.7212C35.9349 42.7656 35.9692 42.8714 35.9245 42.9577L34.7232 45.2748Z" fill="black"/>
<path fill-rule="evenodd" clip-rule="evenodd" d="M16.5881 20.9172C16.6796 20.7931 16.761 20.6827 16.8255 20.5869L17.1483 20.7077C17.0876 21.1593 17.3047 21.605 17.7307 22.0863C18.1427 22.5519 18.7211 23.0187 19.3466 23.5237C19.3667 23.5399 19.3868 23.5562 19.407 23.5725C20.0498 24.0915 20.7329 24.6479 21.2936 25.2658C21.8548 25.8842 22.3045 26.5759 22.468 27.3703C22.5581 27.8082 22.6102 28.7193 22.6355 29.8996C22.6609 31.0865 22.6592 32.5626 22.6374 34.1422C22.5939 37.3014 22.4701 40.88 22.3216 43.3973L21.968 43.3768C22.1161 40.8657 22.2398 37.2924 22.2832 34.1374C22.305 32.5599 22.3066 31.0883 22.2813 29.907C22.2559 28.7192 22.2034 27.8415 22.1209 27.4405C21.975 26.7311 21.5693 26.0946 21.0303 25.5007C20.4908 24.9062 19.829 24.3662 19.1833 23.8448C19.1589 23.8251 19.1346 23.8054 19.1102 23.7858C18.4957 23.2897 17.8966 22.8062 17.4644 22.3179C17.1523 21.9653 16.9122 21.5936 16.8224 21.1967C16.3907 21.7855 15.8232 22.5796 15.6718 23.5682C15.4909 24.7495 15.9093 26.2495 18.0964 27.9856L19.4447 25.2435L19.7413 27.8719C20.261 28.0656 20.7506 28.6145 21.1236 29.6395C21.5261 30.7458 21.8074 32.4425 21.8377 34.9594C21.8489 35.8876 21.8236 37.5843 21.7968 39.2519C21.7944 39.4059 21.7919 39.5596 21.7894 39.7124C21.7651 41.2177 21.7421 42.639 21.7463 43.3861L21.3921 43.3881C21.3879 42.6368 21.4109 41.2115 21.4352 39.7083C21.4377 39.5549 21.4402 39.4007 21.4427 39.2463C21.4695 37.5764 21.4946 35.8857 21.4835 34.9636C21.4534 32.465 21.1738 30.8125 20.7904 29.7587C20.4052 28.7002 19.9296 28.2807 19.5315 28.1733L19.4154 28.1419L19.2284 26.4849L18.2232 28.5292L18.051 28.3971C15.649 26.5541 15.1107 24.8924 15.3216 23.5154C15.4917 22.4045 16.1538 21.5064 16.5881 20.9172Z" fill="black"/>
<path fill-rule="evenodd" clip-rule="evenodd" d="M26.9152 21.0592C26.8128 20.9221 26.7231 20.802 26.6506 20.6943L26.3262 20.7919C26.3262 21.1527 26.1474 21.5128 25.824 21.8954C25.501 22.2776 25.0513 22.6618 24.5443 23.0704C24.4194 23.1711 24.2911 23.2732 24.1607 23.3769C23.2454 24.1051 22.2278 24.9146 21.581 25.8872L21.8767 26.0806C22.4903 25.1578 23.4592 24.3863 24.3793 23.6535C24.5102 23.5493 24.64 23.4459 24.7677 23.3429C25.2744 22.9345 25.7483 22.5317 26.0955 22.121C26.331 21.8425 26.5163 21.5508 26.611 21.242C26.6188 21.2524 26.6265 21.2628 26.6344 21.2733C26.6646 21.3137 26.6953 21.3548 26.7264 21.3966C26.8658 21.5845 27.015 21.7909 27.1575 22.0168C27.4427 22.469 27.6967 22.9926 27.7864 23.5842C27.9583 24.7187 27.5342 26.1748 25.3439 27.9109L23.9956 25.1687L23.699 27.7967C23.188 27.9841 22.6523 28.5078 22.2794 29.4986L22.6113 29.6213C22.9889 28.6178 23.5122 28.2055 23.9088 28.0985L24.0249 28.0671L24.2119 26.4101L25.2171 28.4544L25.3893 28.3223C27.7884 26.4815 28.3388 24.866 28.1366 23.532C28.037 22.8748 27.7568 22.3046 27.4578 21.8305C27.3081 21.5933 27.1526 21.3785 27.0116 21.1885C26.9784 21.1437 26.9462 21.1007 26.9152 21.0592Z" fill="black"/>
<path d="M28.5286 10.8612C28.589 10.143 27.92 10.1131 27.5779 10.1879C27.3415 11.4647 26.9561 14.0153 27.3062 14.0033C27.7439 13.9884 28.1363 13.8687 28.2117 12.9859C28.2872 12.1031 28.4532 11.7589 28.5286 10.8612Z" fill="#F8AF78"/>
<path fill-rule="evenodd" clip-rule="evenodd" d="M28.2752 10.0651C28.025 9.95648 27.7299 9.97364 27.5398 10.0152L27.425 10.0403L27.4037 10.155C27.2851 10.7958 27.1287 11.7577 27.046 12.5598C27.0047 12.9595 26.9809 13.327 26.9908 13.597C26.9956 13.7297 27.0089 13.8525 27.0387 13.9466C27.0535 13.9932 27.0766 14.047 27.1163 14.0916C27.1606 14.1413 27.2278 14.1805 27.3124 14.1776C27.5402 14.1698 27.8015 14.135 28.0121 13.9504C28.2234 13.7653 28.3487 13.4613 28.3882 12.9995C28.4249 12.5708 28.4831 12.2729 28.543 11.9671L28.5441 11.9614C28.6047 11.6516 28.6666 11.3334 28.7052 10.8746C28.7225 10.6681 28.6886 10.494 28.6072 10.3537C28.5254 10.2129 28.4046 10.1213 28.2752 10.0651ZM28.3002 10.5289C28.3379 10.5939 28.365 10.6929 28.3522 10.8454C28.3153 11.2844 28.2565 11.5871 28.1963 11.8945L28.1948 11.9025C28.1348 12.2093 28.0735 12.5224 28.0353 12.9699C27.9993 13.3908 27.8907 13.5882 27.7776 13.6873C27.677 13.7754 27.5454 13.811 27.3715 13.823C27.3587 13.773 27.3488 13.6943 27.3447 13.5842C27.3358 13.3394 27.3574 12.9916 27.3983 12.5956C27.4747 11.8551 27.6155 10.9717 27.7298 10.3401C27.8626 10.3264 28.0143 10.3352 28.1332 10.3868C28.2063 10.4186 28.2628 10.4645 28.3002 10.5289Z" fill="black"/>
<path d="M14.5889 10.8963C14.5285 10.1781 15.1976 10.1482 15.5397 10.223C15.7761 11.4998 16.1614 14.0504 15.8113 14.0385C15.3737 14.0235 14.9813 13.9038 14.9058 13.021C14.8304 12.1382 14.6644 11.7941 14.5889 10.8963Z" fill="#F8AF78"/>
<path fill-rule="evenodd" clip-rule="evenodd" d="M14.8428 10.1003C15.093 9.99164 15.3881 10.0088 15.5783 10.0504L15.6931 10.0755L15.7143 10.1901C15.833 10.831 15.9893 11.7928 16.0721 12.595C16.1133 12.9947 16.1371 13.3622 16.1273 13.6321C16.1224 13.7649 16.1091 13.8876 16.0793 13.9818C16.0646 14.0283 16.0415 14.0822 16.0017 14.1268C15.9574 14.1764 15.8903 14.2157 15.8057 14.2128C15.5778 14.205 15.3165 14.1701 15.1059 13.9856C14.8946 13.8004 14.7693 13.4965 14.7298 13.0347C14.6932 12.6059 14.6349 12.3081 14.5751 12.0022L14.574 11.9966C14.5134 11.6868 14.4514 11.3686 14.4129 10.9098C14.3955 10.7032 14.4294 10.5292 14.5109 10.3889C14.5926 10.248 14.7135 10.1564 14.8428 10.1003ZM14.8179 10.564C14.7801 10.629 14.753 10.728 14.7659 10.8806C14.8028 11.3195 14.8616 11.6223 14.9217 11.9297L14.9233 11.9377C14.9833 12.2445 15.0445 12.5575 15.0828 13.005C15.1187 13.426 15.2274 13.6233 15.3405 13.7224C15.441 13.8105 15.5727 13.8461 15.7466 13.8582C15.7593 13.8082 15.7693 13.7294 15.7733 13.6194C15.7823 13.3746 15.7606 13.0268 15.7197 12.6307C15.6433 11.8903 15.5026 11.0068 15.3882 10.3753C15.2554 10.3615 15.1037 10.3704 14.9849 10.422C14.9117 10.4537 14.8553 10.4996 14.8179 10.564Z" fill="black"/>
<path d="M15.8103 2.65018C15.0859 4.78982 15.0859 7.42323 15.1916 8.99431C15.5538 10.9694 15.6896 16.5803 15.6896 16.5803C16.0561 19.7625 19.8498 21.0541 21.6507 21.3085C25.4235 20.8895 27.4156 18.2561 27.5363 16.5803C27.657 14.9045 28.0947 9.5928 28.0947 7.76737C28.0947 6.30702 27.6822 4.91451 27.4759 4.40079C27.8864 4.74792 28.1299 5.68259 28.2003 6.10653C28.3331 3.68857 27.0383 3.11401 26.3742 3.12897C26.2686 1.96189 25.665 1.12399 24.6237 0.749926C23.7906 0.450674 22.6668 0.355911 22.209 0.345936C23.0179 0.26214 23.8842 0.380851 24.2162 0.450681C22.0128 -0.536848 19.4473 0.301056 17.742 1.03422C16.3777 1.62075 15.8858 3.01427 15.8103 3.63771V2.65018Z" fill="black"/>
<path d="M17.0065 4.90946C15.8234 5.96283 15.7087 9.75734 15.7992 11.5229C15.7992 12.0267 15.9079 13.2287 16.5236 14.7249C17.1393 16.2212 18.239 16.1713 18.6062 15.9219C19.1374 15.2875 19.9191 15.0142 20.3266 14.9045C20.4353 15.1558 20.8246 15.109 21.0057 15.0541C21.6215 15.3055 22.2784 15.1588 22.53 15.0541C22.9163 15.1738 23.1336 15.0042 23.194 14.9045C24.024 14.9793 24.2504 15.7124 25.2464 16.0267C26.2424 16.3409 27.1479 14.6351 27.3743 13.5129C27.6006 12.3908 27.5403 8.68004 27.163 6.48054C26.8612 4.72094 25.9004 4.24114 25.4577 4.22119C25.186 4.45062 24.0029 4.89151 21.4434 4.81969C18.244 4.72991 18.4855 3.59276 17.0065 4.90946Z" fill="#F8AF78"/>
<path d="M16.6907 8.71816C16.5123 8.64969 16.4115 8.43697 16.3682 8.28602C16.3535 8.23493 16.3763 8.18144 16.4206 8.15204C17.7779 7.25074 19.4483 7.60938 20.1892 7.93139C20.2318 7.94991 20.262 7.98977 20.2636 8.03621C20.2755 8.37679 20.0302 8.59752 19.8552 8.69326C19.8149 8.71526 19.7662 8.70928 19.7272 8.68518C18.535 7.94857 16.9341 8.65631 16.7298 8.72049C16.7165 8.72466 16.7037 8.72314 16.6907 8.71816Z" fill="black"/>
<path d="M26.6374 8.7245C26.8159 8.65604 26.9166 8.44332 26.9599 8.29237C26.9746 8.24128 26.9518 8.18779 26.9076 8.15839C25.5502 7.25709 23.8799 7.61573 23.1389 7.93774C23.0963 7.95626 23.0662 7.99612 23.0645 8.04256C23.0526 8.38314 23.2979 8.60386 23.473 8.69961C23.5132 8.7216 23.5619 8.71563 23.6009 8.69153C24.7932 7.95491 26.394 8.66266 26.5983 8.72684C26.6116 8.73101 26.6244 8.72949 26.6374 8.7245Z" fill="black"/>
<path fill-rule="evenodd" clip-rule="evenodd" d="M14.7643 10.1014V9.08397C15.383 8.9543 17.0521 8.73385 18.7786 8.88946C19.8975 8.99031 20.2496 9.11931 20.525 9.22017C20.7807 9.31384 20.9701 9.38323 21.6459 9.38323C22.3218 9.38323 22.5112 9.31384 22.7669 9.22017C23.0422 9.11931 23.3944 8.99031 24.5133 8.88946C26.2397 8.73385 27.9088 8.9543 28.5276 9.08397V10.1014C28.3465 10.2959 27.9662 10.7628 27.8938 11.074C27.8032 11.463 27.3957 13.0939 24.7849 12.9593C24.1662 12.9443 22.8502 12.7169 22.5363 11.9269C22.4615 11.7386 22.3972 11.5673 22.3393 11.4131C22.0933 10.7582 21.9635 10.4128 21.6459 10.4007C21.3283 10.4128 21.1986 10.7582 20.9526 11.4131L20.9526 11.4131C20.8947 11.5673 20.8303 11.7387 20.7555 11.9269C20.4416 12.7169 19.1257 12.9443 18.5069 12.9593C15.8961 13.0939 15.4887 11.463 15.3981 11.074C15.3257 10.7628 14.9454 10.2959 14.7643 10.1014ZM15.8359 11.224C15.7151 10.6734 15.7856 10.2065 15.8359 9.98209C16.1162 9.08204 17.8019 9.20067 18.9498 9.28145L18.9498 9.28145C19.0996 9.29199 19.2401 9.30188 19.3672 9.30878C20.6103 9.3763 20.9217 10.3113 20.6198 11.224C20.318 12.1367 19.9105 12.8399 18.0392 12.7053C16.1679 12.5706 15.9868 11.9123 15.8359 11.224ZM27.5116 9.98209C27.5619 10.2065 27.6323 10.6734 27.5116 11.224C27.3607 11.9123 27.1796 12.5706 25.3083 12.7053C23.437 12.8399 23.0295 12.1367 22.7277 11.224C22.4258 10.3113 22.7372 9.3763 23.9802 9.30878C24.1074 9.30188 24.2479 9.29198 24.3977 9.28145C25.5456 9.20067 27.2313 9.08204 27.5116 9.98209Z" fill="black"/>
<path d="M19.816 16.3098C20.7475 16.5262 21.4386 16.5608 21.647 16.5607C21.8568 16.5608 22.556 16.5257 23.4973 16.3053C23.5164 16.3008 23.5349 16.3149 23.534 16.3343C23.5079 16.8678 23.024 17.8824 21.647 17.8824C20.2872 17.8824 19.7983 16.893 19.7612 16.3546C19.7592 16.3249 19.787 16.3031 19.816 16.3098Z" fill="#FF1010"/>
<path d="M19.816 16.3098C20.7475 16.5262 21.4386 16.5608 21.647 16.5607C21.8568 16.5608 22.556 16.5257 23.4973 16.3053C23.5164 16.3008 23.5349 16.3149 23.534 16.3343C23.527 16.477 23.4873 16.654 23.4066 16.8368C23.4028 16.8454 23.3965 16.8526 23.3883 16.857C23.2282 16.9438 22.6795 17.1044 21.647 17.1044C20.6145 17.1044 20.0657 16.9438 19.9057 16.857C19.8974 16.8526 19.8912 16.8454 19.8874 16.8368C19.8105 16.6626 19.7708 16.4937 19.7612 16.3547C19.7592 16.3251 19.787 16.3031 19.816 16.3098Z" fill="white"/>
<ellipse cx="18.3254" cy="10.6862" rx="0.618745" ry="0.613465" fill="black"/>
<ellipse cx="18.4914" cy="10.551" rx="0.211279" ry="0.209718" fill="white"/>
<ellipse cx="24.9958" cy="10.6852" rx="0.618745" ry="0.613465" fill="black"/>
<ellipse cx="25.1617" cy="10.551" rx="0.211279" ry="0.209718" fill="white"/>
<path d="M27.7006 44.2986C28.126 44.2986 28.4942 44.5945 28.5858 45.0099L29.4166 48.7797C29.5413 49.3453 29.1107 49.8812 28.5314 49.8812L15.5452 49.8812C14.973 49.8812 14.544 49.3575 14.6565 48.7965L15.4125 45.0268C15.4974 44.6033 15.8693 44.2986 16.3012 44.2986L27.7006 44.2986Z" fill="black"/>
<path d="M27.845 44.7363C28.0515 44.7363 28.2302 44.8799 28.2746 45.0816L29.118 48.9101C29.1784 49.1847 28.9695 49.4447 28.6884 49.4447L15.5095 49.4447C15.2315 49.4447 15.0232 49.19 15.0784 48.9175L15.8535 45.0889C15.895 44.8838 16.0753 44.7363 16.2846 44.7363L27.845 44.7363Z" fill="white"/>
<path d="M26.946 44.9275C27.0795 44.9275 27.1948 45.0207 27.2229 45.1511L28.0215 48.86C28.0595 49.0364 27.925 49.2029 27.7446 49.2029L16.8907 49.2029C16.7115 49.2029 16.5774 49.0387 16.6131 48.8631L17.3685 45.1542C17.3954 45.0223 17.5115 44.9275 17.6461 44.9275L26.946 44.9275Z" fill="black"/>
<path d="M16.2238 46.5122C16.3806 46.5122 16.5099 46.6394 16.5099 46.7962C16.5099 46.9531 16.3806 47.0802 16.2238 47.0802C16.0669 47.0802 15.9376 46.9531 15.9376 46.7962C15.9376 46.6394 16.0669 46.5122 16.2238 46.5122Z" fill="black"/>
<path d="M59.8282 28.6497L59.1704 26.204H53.634L52.9762 28.6497H47.0834L53.1954 9.62766H59.609L65.721 28.6497H59.8282ZM54.8125 21.8561H57.9919L56.4022 16.0136L54.8125 21.8561Z" fill="#E2001A"/>
<path d="M78.3605 28.6226L75.3182 22.6442H73.9478V28.6226H68.4661V9.60049H76.1404C78.2417 9.60049 79.9776 10.2164 81.348 11.4483C82.7184 12.6621 83.4036 14.2745 83.4036 16.2854C83.4036 17.4086 83.1387 18.4231 82.6088 19.3289C82.0972 20.2347 81.3754 20.9684 80.4435 21.53L84.2259 28.6226H78.3605ZM73.9478 14.6006V18.1332H76.0308C76.6155 18.1514 77.0723 18.0064 77.4012 17.6985C77.7484 17.3905 77.922 16.9557 77.922 16.3941C77.922 15.8325 77.7484 15.3977 77.4012 15.0897C77.0723 14.7636 76.6155 14.6006 76.0308 14.6006H73.9478Z" fill="#E2001A"/>
<path d="M97.1352 28.6226L94.0928 22.6442H92.7224V28.6226H87.2408V9.60049H94.9151C97.0164 9.60049 98.7522 10.2164 100.123 11.4483C101.493 12.6621 102.178 14.2745 102.178 16.2854C102.178 17.4086 101.913 18.4231 101.383 19.3289C100.872 20.2347 100.15 20.9684 99.2182 21.53L103.001 28.6226H97.1352ZM92.7224 14.6006V18.1332H94.8055C95.3902 18.1514 95.847 18.0064 96.1759 17.6985C96.523 17.3905 96.6966 16.9557 96.6966 16.3941C96.6966 15.8325 96.523 15.3977 96.1759 15.0897C95.847 14.7636 95.3902 14.6006 94.8055 14.6006H92.7224Z" fill="#E2001A"/>
<path d="M122.439 26.2312C120.484 28.1334 118.081 29.0845 115.231 29.0845C112.381 29.0845 109.969 28.1334 107.995 26.2312C106.04 24.3109 105.063 21.9467 105.063 19.1387C105.063 16.3307 106.04 13.9756 107.995 12.0734C109.969 10.153 112.381 9.19287 115.231 9.19287C118.081 9.19287 120.484 10.153 122.439 12.0734C124.413 13.9756 125.4 16.3307 125.4 19.1387C125.4 21.9467 124.413 24.3109 122.439 26.2312ZM111.86 22.454C112.755 23.3236 113.879 23.7583 115.231 23.7583C116.583 23.7583 117.698 23.3236 118.575 22.454C119.47 21.5663 119.918 20.4612 119.918 19.1387C119.918 17.8162 119.47 16.7202 118.575 15.8506C117.698 14.9629 116.583 14.5191 115.231 14.5191C113.879 14.5191 112.755 14.9629 111.86 15.8506C110.983 16.7202 110.544 17.8162 110.544 19.1387C110.544 20.4612 110.983 21.5663 111.86 22.454Z" fill="#E2001A"/>
<path d="M139.515 9.62766H144.996V28.6497H140.611L134.581 19.9539V28.6497H129.099V9.62766H133.485L139.515 18.3235V9.62766Z" fill="#E2001A"/>
<rect x="47.074" y="32.2146" width="97.926" height="8.53644" rx="4.26822" fill="#276CAA"/>
<path d="M55.8375 38.7879C55.3981 38.7879 55.024 38.6887 54.7151 38.4902C54.4106 38.2918 54.1974 38.0201 54.0756 37.675L54.7216 37.2997C54.9043 37.8087 55.2828 38.0632 55.8571 38.0632C56.1399 38.0632 56.3509 38.0093 56.4901 37.9015C56.6337 37.7893 56.7055 37.6448 56.7055 37.468C56.7055 37.2825 56.6293 37.1423 56.477 37.0474C56.3248 36.9482 56.055 36.8404 55.6679 36.7239C55.4503 36.6592 55.2741 36.5988 55.1393 36.5427C55.0044 36.4867 54.8608 36.409 54.7086 36.3098C54.5606 36.2063 54.4497 36.0791 54.3757 35.9281C54.3018 35.7771 54.2648 35.6003 54.2648 35.3975C54.2648 34.9964 54.4084 34.6794 54.6955 34.4464C54.9826 34.2092 55.3285 34.0906 55.7331 34.0906C56.0986 34.0906 56.4183 34.179 56.6924 34.3559C56.9665 34.5327 57.1775 34.7764 57.3254 35.087L56.6924 35.4493C56.501 35.0266 56.1812 34.8152 55.7331 34.8152C55.5156 34.8152 55.3416 34.867 55.211 34.9705C55.0805 35.0697 55.0153 35.2056 55.0153 35.3781C55.0153 35.5463 55.0805 35.6801 55.211 35.7793C55.3459 35.8742 55.5874 35.9755 55.9354 36.0834C56.1094 36.1394 56.2356 36.1826 56.3139 36.2128C56.3966 36.2386 56.5097 36.2818 56.6532 36.3422C56.8012 36.4026 56.9121 36.4629 56.9861 36.5233C57.06 36.5837 57.1383 36.6592 57.221 36.7498C57.308 36.8404 57.3689 36.9439 57.4037 37.0603C57.4385 37.1768 57.4559 37.3084 57.4559 37.455C57.4559 37.8648 57.3058 38.1905 57.0056 38.432C56.7098 38.6692 56.3204 38.7879 55.8375 38.7879Z" fill="white"/>
<path d="M61.4314 37.992H63.4544V38.7038H60.6809V34.1747H63.4218V34.8864H61.4314V36.064H63.2586V36.7692H61.4314V37.992Z" fill="white"/>
<path d="M69.3555 38.7038L68.3897 37.0539H67.5022V38.7038H66.7517V34.1747H68.5789C68.9879 34.1747 69.3337 34.317 69.6165 34.6017C69.9036 34.8821 70.0472 35.225 70.0472 35.6305C70.0472 35.9195 69.9624 36.1847 69.7927 36.4263C69.6274 36.6635 69.4099 36.8361 69.1401 36.9439L70.1777 38.7038H69.3555ZM67.5022 34.8735V36.3875H68.5789C68.779 36.3875 68.9487 36.3141 69.0879 36.1675C69.2271 36.0208 69.2967 35.8418 69.2967 35.6305C69.2967 35.4191 69.2271 35.2401 69.0879 35.0934C68.9487 34.9468 68.779 34.8735 68.5789 34.8735H67.5022Z" fill="white"/>
<path d="M74.462 38.7038L72.8762 34.1747H73.6985L74.9123 37.8044L76.1326 34.1747H76.9483L75.3626 38.7038H74.462Z" fill="white"/>
<path d="M80.0467 34.1747H80.7972V38.7038H80.0467V34.1747Z" fill="white"/>
<path d="M86.4803 38.7879C85.793 38.7879 85.223 38.5636 84.7706 38.115C84.3181 37.6621 84.0919 37.1035 84.0919 36.4392C84.0919 35.775 84.3181 35.2185 84.7706 34.7699C85.223 34.317 85.793 34.0906 86.4803 34.0906C86.8936 34.0906 87.2743 34.1876 87.6224 34.3817C87.9748 34.5758 88.2488 34.839 88.4446 35.1711L87.792 35.5463C87.6702 35.3221 87.4918 35.1452 87.2569 35.0158C87.0263 34.8821 86.7675 34.8152 86.4803 34.8152C85.9931 34.8152 85.5972 34.9684 85.2927 35.2746C84.9925 35.5809 84.8424 35.9691 84.8424 36.4392C84.8424 36.9094 84.9925 37.2976 85.2927 37.6038C85.5972 37.9101 85.9931 38.0632 86.4803 38.0632C86.7675 38.0632 87.0285 37.9985 87.2634 37.8691C87.4984 37.7354 87.6746 37.5564 87.792 37.3321L88.4446 37.7009C88.2532 38.033 87.9813 38.2983 87.6289 38.4967C87.2808 38.6908 86.898 38.7879 86.4803 38.7879Z" fill="white"/>
<path d="M92.4289 37.992H94.4518V38.7038H91.6784V34.1747H94.4192V34.8864H92.4289V36.064H94.2561V36.7692H92.4289V37.992Z" fill="white"/>
<path d="M104.151 38.7879C103.464 38.7879 102.894 38.5636 102.441 38.115C101.989 37.6621 101.763 37.1035 101.763 36.4392C101.763 35.775 101.989 35.2185 102.441 34.7699C102.894 34.317 103.464 34.0906 104.151 34.0906C104.564 34.0906 104.945 34.1876 105.293 34.3817C105.645 34.5758 105.919 34.839 106.115 35.1711L105.463 35.5463C105.341 35.3221 105.162 35.1452 104.928 35.0158C104.697 34.8821 104.438 34.8152 104.151 34.8152C103.664 34.8152 103.268 34.9684 102.963 35.2746C102.663 35.5809 102.513 35.9691 102.513 36.4392C102.513 36.9094 102.663 37.2976 102.963 37.6038C103.268 37.9101 103.664 38.0632 104.151 38.0632C104.438 38.0632 104.699 37.9985 104.934 37.8691C105.169 37.7354 105.345 37.5564 105.463 37.3321L106.115 37.7009C105.924 38.033 105.652 38.2983 105.299 38.4967C104.951 38.6908 104.569 38.7879 104.151 38.7879Z" fill="white"/>
<path d="M110.099 37.992H112.122V38.7038H109.349V34.1747H112.09V34.8864H110.099V36.064H111.927V36.7692H110.099V37.992Z" fill="white"/>
<path d="M118.161 34.1747H118.911V38.7038H118.324L116.17 35.6305V38.7038H115.42V34.1747H116.007L118.161 37.248V34.1747Z" fill="white"/>
<path d="M125.403 34.1747V34.8864H124.117V38.7038H123.367V34.8864H122.075V34.1747H125.403Z" fill="white"/>
<path d="M129.319 37.992H131.342V38.7038H128.568V34.1747H131.309V34.8864H129.319V36.064H131.146V36.7692H129.319V37.992Z" fill="white"/>
<path d="M137.243 38.7038L136.277 37.0539H135.389V38.7038H134.639V34.1747H136.466C136.875 34.1747 137.221 34.317 137.504 34.6017C137.791 34.8821 137.934 35.225 137.934 35.6305C137.934 35.9195 137.85 36.1847 137.68 36.4263C137.515 36.6635 137.297 36.8361 137.027 36.9439L138.065 38.7038H137.243ZM135.389 34.8735V36.3875H136.466C136.666 36.3875 136.836 36.3141 136.975 36.1675C137.114 36.0208 137.184 35.8418 137.184 35.6305C137.184 35.4191 137.114 35.2401 136.975 35.0934C136.836 34.9468 136.666 34.8735 136.466 34.8735H135.389Z" fill="white"/>
</svg>
